<svg xmlns="http://www.w3.org/2000/svg" width="50" height="50" viewBox="0 0 50 50">
  <g id="Сгруппировать_7903" data-name="Сгруппировать 7903" transform="translate(-929 -1244)">
    <circle id="Эллипс_41" data-name="Эллипс 41" cx="25" cy="25" r="25" transform="translate(929 1244)" fill="#fbe5e3"/>
    <g id="Сгруппировать_7892" data-name="Сгруппировать 7892" transform="translate(650.754 -513)">
      <g id="Сгруппировать_7848" data-name="Сгруппировать 7848" transform="translate(289.333 1785.692)">
        <g id="Сгруппировать_7847" data-name="Сгруппировать 7847" transform="translate(0 0)">
          <path id="Контур_2448" data-name="Контур 2448" d="M23.931,192a2.6,2.6,0,1,0,2.6,2.6A2.6,2.6,0,0,0,23.931,192Zm0,3.9a1.3,1.3,0,1,1,1.3-1.3A1.3,1.3,0,0,1,23.931,195.9Z" transform="translate(-21.333 -192)" fill="#ff7265"/>
        </g>
      </g>
      <g id="Сгруппировать_7850" data-name="Сгруппировать 7850" transform="translate(297.128 1779.196)">
        <g id="Сгруппировать_7849" data-name="Сгруппировать 7849" transform="translate(0 0)">
          <path id="Контур_2449" data-name="Контур 2449" d="M151.931,85.333a2.6,2.6,0,1,0,2.6,2.6A2.6,2.6,0,0,0,151.931,85.333Zm0,3.9a1.3,1.3,0,1,1,1.3-1.3A1.3,1.3,0,0,1,151.931,89.23Z" transform="translate(-149.333 -85.333)" fill="#ff7265"/>
        </g>
      </g>
      <g id="Сгруппировать_7852" data-name="Сгруппировать 7852" transform="translate(304.922 1781.795)">
        <g id="Сгруппировать_7851" data-name="Сгруппировать 7851" transform="translate(0 0)">
          <path id="Контур_2450" data-name="Контур 2450" d="M279.931,128a2.6,2.6,0,1,0,2.6,2.6A2.6,2.6,0,0,0,279.931,128Zm0,3.9a1.3,1.3,0,1,1,1.3-1.3A1.3,1.3,0,0,1,279.931,131.9Z" transform="translate(-277.333 -128)" fill="#ff7265"/>
        </g>
      </g>
      <g id="Сгруппировать_7854" data-name="Сгруппировать 7854" transform="translate(312.717 1774)">
        <g id="Сгруппировать_7853" data-name="Сгруппировать 7853" transform="translate(0)">
          <path id="Контур_2451" data-name="Контур 2451" d="M407.931,0a2.6,2.6,0,1,0,2.6,2.6A2.6,2.6,0,0,0,407.931,0Zm0,3.9a1.3,1.3,0,1,1,1.3-1.3A1.3,1.3,0,0,1,407.931,3.9Z" transform="translate(-405.333)" fill="#ff7265"/>
        </g>
      </g>
      <g id="Сгруппировать_7856" data-name="Сгруппировать 7856" transform="translate(308.249 1777.325)">
        <g id="Сгруппировать_7855" data-name="Сгруппировать 7855" transform="translate(0 0)">
          <path id="Контур_2452" data-name="Контур 2452" d="M338.112,54.8a.65.65,0,0,0-.918,0l-5.04,5.04a.649.649,0,0,0,.918.918l5.04-5.04A.65.65,0,0,0,338.112,54.8Z" transform="translate(-331.963 -54.608)" fill="#ff7265"/>
        </g>
      </g>
      <g id="Сгруппировать_7858" data-name="Сгруппировать 7858" transform="translate(300.95 1781.678)">
        <g id="Сгруппировать_7857" data-name="Сгруппировать 7857" transform="translate(0 0)">
          <path id="Контур_2453" data-name="Контур 2453" d="M217.108,127.294l-4.173-1.19a.65.65,0,0,0-.356,1.25l4.173,1.19a.65.65,0,0,0,.356-1.25Z" transform="translate(-212.108 -126.078)" fill="#ff7265"/>
        </g>
      </g>
      <g id="Сгруппировать_7860" data-name="Сгруппировать 7860" transform="translate(292.658 1782.359)">
        <g id="Сгруппировать_7859" data-name="Сгруппировать 7859" transform="translate(0 0)">
          <path id="Контур_2454" data-name="Контур 2454" d="M81.989,137.518a.65.65,0,0,0-.912-.1l-4.9,3.905a.65.65,0,0,0,.405,1.157.656.656,0,0,0,.4-.14l4.9-3.905A.649.649,0,0,0,81.989,137.518Z" transform="translate(-75.935 -137.273)" fill="#ff7265"/>
        </g>
      </g>
    </g>
  </g>
</svg>
