<svg xmlns="http://www.w3.org/2000/svg" width="50" height="50" viewBox="0 0 50 50">
  <g id="Сгруппировать_7902" data-name="Сгруппировать 7902" transform="translate(-1327 -1464)">
    <circle id="Эллипс_41" data-name="Эллипс 41" cx="25" cy="25" r="25" transform="translate(1327 1464)" fill="#fdf5e8"/>
    <g id="Сгруппировать_7893" data-name="Сгруппировать 7893" transform="translate(1304.002 1441)">
      <g id="Сгруппировать_7885" data-name="Сгруппировать 7885">
        <path id="Контур_2477" data-name="Контур 2477" d="M48,62A14,14,0,1,1,62,48,14.017,14.017,0,0,1,48,62Zm0-26A12,12,0,1,0,60,48,12.014,12.014,0,0,0,48,36Z" fill="#ffb53b"/>
      </g>
      <g id="Сгруппировать_7886" data-name="Сгруппировать 7886">
        <path id="Контур_2478" data-name="Контур 2478" d="M48,59A11,11,0,1,1,59,48,11.014,11.014,0,0,1,48,59Zm0-20a9,9,0,1,0,9,9A9.011,9.011,0,0,0,48,39Z" fill="#ffb53b"/>
      </g>
      <g id="Сгруппировать_7887" data-name="Сгруппировать 7887">
        <path id="Контур_2479" data-name="Контур 2479" d="M48,51a3,3,0,1,1,3-3A3,3,0,0,1,48,51Zm0-4a1,1,0,1,0,1,1A1,1,0,0,0,48,46.995Z" fill="#ffb53b"/>
      </g>
      <g id="Сгруппировать_7888" data-name="Сгруппировать 7888">
        <path id="Контур_2480" data-name="Контур 2480" d="M56.664,44H39.34a1,1,0,1,1,0-2H56.664a1,1,0,0,1,0,2Z" fill="#ffb53b"/>
      </g>
      <g id="Сгруппировать_7889" data-name="Сгруппировать 7889">
        <path id="Контур_2481" data-name="Контур 2481" d="M50,58.789h-.019A1,1,0,0,1,49,57.77a11.929,11.929,0,0,1,8.707-11.313,1,1,0,0,1,.547,1.923A9.939,9.939,0,0,0,51,57.807a1,1,0,0,1-1,.982Z" fill="#ffb53b"/>
      </g>
      <g id="Сгруппировать_7890" data-name="Сгруппировать 7890">
        <path id="Контур_2482" data-name="Контур 2482" d="M46,58.8a1,1,0,0,1-1-.982,9.932,9.932,0,0,0-7.255-9.437,1,1,0,0,1,.545-1.923A11.921,11.921,0,0,1,47,57.782a1,1,0,0,1-.982,1.018H46Z" fill="#ffb53b"/>
      </g>
    </g>
  </g>
</svg>
