<svg xmlns="http://www.w3.org/2000/svg" width="50" height="50" viewBox="0 0 50 50">
  <g id="Сгруппировать_7898" data-name="Сгруппировать 7898" transform="translate(-929 -1464)">
    <circle id="Эллипс_41" data-name="Эллипс 41" cx="25" cy="25" r="25" transform="translate(929 1464)" fill="#dadce8"/>
    <g id="XMLID_806_" transform="translate(940 1466.738)">
      <g id="XMLID_386_" transform="translate(0 10.262)">
        <path id="XMLID_389_" d="M24.892,23.384a9.832,9.832,0,0,0-7.645-8.621V13.525a1.656,1.656,0,0,0-.4-3.263H13.34a1.656,1.656,0,0,0-.4,3.263v1.241a9.781,9.781,0,0,0-4.8,2.639,9.887,9.887,0,0,0-.827.939l-.037,0H3.808a.487.487,0,1,0,0,.974H6.653a9.765,9.765,0,0,0-.864,1.872H.487a.487.487,0,0,0,0,.974H5.513a9.9,9.9,0,0,0-.242,1.872H3.118a.487.487,0,1,0,0,.974h2.17a9.89,9.89,0,0,0,.3,1.872H2.436a.487.487,0,0,0,0,.974H5.9a9.838,9.838,0,0,0,8.226,6.3q.483.048.965.047a9.863,9.863,0,0,0,5.37-1.587.487.487,0,1,0-.532-.816,8.865,8.865,0,1,1,2.611-2.614.487.487,0,1,0,.817.531A9.871,9.871,0,0,0,24.892,23.384ZM12.658,11.918a.683.683,0,0,1,.682-.682h3.507a.682.682,0,1,1,0,1.364H13.34A.683.683,0,0,1,12.658,11.918ZM13.914,14.6V13.574h2.358V14.6A9.925,9.925,0,0,0,13.914,14.6Z" transform="translate(0 -10.262)" fill="#3d55e8"/>
        <path id="XMLID_391_" d="M436.257,425.5a.487.487,0,1,0,.344.143A.49.49,0,0,0,436.257,425.5Z" transform="translate(-414.543 -405.273)" fill="#3d55e8"/>
        <path id="XMLID_394_" d="M162.429,144.609a7.557,7.557,0,1,0,7.557,7.557A7.565,7.565,0,0,0,162.429,144.609Zm0,14.139a6.582,6.582,0,1,1,6.582-6.582A6.59,6.59,0,0,1,162.429,158.748Z" transform="translate(-147.328 -138.065)" fill="#3d55e8"/>
        <path id="XMLID_397_" d="M262.7,219.554l-2.413,2.413a1.51,1.51,0,0,0-1.337,0l-1.08-1.08a.487.487,0,0,0-.689.689l1.08,1.08a1.514,1.514,0,1,0,2.715,0l2.342-2.342h0l.071-.071a.487.487,0,1,0-.689-.689Zm-3.081,4.31a.539.539,0,1,1,.539-.539A.54.54,0,0,1,259.616,223.864Z" transform="translate(-244.516 -209.223)" fill="#3d55e8"/>
        <path id="XMLID_398_" d="M398.593,289.86h-.451a.487.487,0,0,0,0,.974h.451a.487.487,0,1,0,0-.974Z" transform="translate(-378.285 -276.24)" fill="#3d55e8"/>
        <path id="XMLID_399_" d="M194.02,289.616h-.451a.487.487,0,0,0,0,.974h.451a.487.487,0,0,0,0-.974Z" transform="translate(-183.677 -276.008)" fill="#3d55e8"/>
        <path id="XMLID_400_" d="M300.61,184.245a.487.487,0,0,0,.487-.487v-.451a.487.487,0,1,0-.974,0v.451A.487.487,0,0,0,300.61,184.245Z" transform="translate(-285.503 -174.413)" fill="#3d55e8"/>
        <path id="XMLID_424_" d="M300.366,387.393a.487.487,0,0,0-.487.487v.451a.487.487,0,1,0,.974,0v-.451A.487.487,0,0,0,300.366,387.393Z" transform="translate(-285.271 -369.022)" fill="#3d55e8"/>
        <path id="XMLID_425_" d="M.487,351.44a.487.487,0,1,0,.344.832.487.487,0,0,0-.344-.832Z" transform="translate(0 -334.821)" fill="#3d55e8"/>
      </g>
    </g>
  </g>
</svg>
