<svg xmlns="http://www.w3.org/2000/svg" width="21.581" height="20.315" viewBox="0 0 21.581 20.315">
  <path id="globe" d="M18.419,2.976a11.263,11.263,0,0,0-15.257,0,9.735,9.735,0,0,0,0,14.362,11.263,11.263,0,0,0,15.257,0A9.735,9.735,0,0,0,18.419,2.976Zm-.451,12.914a10.8,10.8,0,0,0-1.612-1.123,15.538,15.538,0,0,0,.651-3.963h3.172a8.514,8.514,0,0,1-2.211,5.086ZM1.4,10.8H4.574a15.538,15.538,0,0,0,.651,3.963,10.8,10.8,0,0,0-1.612,1.123A8.514,8.514,0,0,1,1.4,10.8ZM3.613,4.424A10.8,10.8,0,0,0,5.225,5.547,15.538,15.538,0,0,0,4.574,9.51H1.4A8.514,8.514,0,0,1,3.613,4.424ZM10.1,5.681a9.812,9.812,0,0,1-3.2-.764C7.482,3.5,8.556,1.809,10.1,1.389Zm0,1.3V9.51H5.95a14.418,14.418,0,0,1,.521-3.355A11.268,11.268,0,0,0,10.1,6.978Zm0,3.827v2.532a11.268,11.268,0,0,0-3.632.823A14.418,14.418,0,0,1,5.95,10.8Zm0,3.829v4.292c-1.547-.42-2.622-2.114-3.2-3.528A9.812,9.812,0,0,1,10.1,14.633Zm1.375,0a9.812,9.812,0,0,1,3.2.764c-.583,1.413-1.657,3.108-3.2,3.528Zm0-1.3V10.8h4.154a14.418,14.418,0,0,1-.521,3.355,11.268,11.268,0,0,0-3.632-.823Zm0-3.827V6.978a11.268,11.268,0,0,0,3.632-.823,14.418,14.418,0,0,1,.521,3.355Zm0-3.829V1.389c1.547.42,2.622,2.115,3.2,3.528A9.813,9.813,0,0,1,11.478,5.681Zm3.088-3.646A9.465,9.465,0,0,1,17,3.5a9.417,9.417,0,0,1-1.106.79,9.6,9.6,0,0,0-1.331-2.255ZM5.684,4.29A9.421,9.421,0,0,1,4.578,3.5,9.465,9.465,0,0,1,7.015,2.035,9.6,9.6,0,0,0,5.684,4.29Zm0,11.734a9.6,9.6,0,0,0,1.331,2.255,9.465,9.465,0,0,1-2.437-1.465A9.417,9.417,0,0,1,5.684,16.024Zm10.213,0a9.422,9.422,0,0,1,1.106.79,9.465,9.465,0,0,1-2.437,1.465A9.594,9.594,0,0,0,15.9,16.024Zm1.11-6.514a15.538,15.538,0,0,0-.651-3.963,10.8,10.8,0,0,0,1.612-1.123A8.514,8.514,0,0,1,20.179,9.51Z" transform="translate(0 0.001)" fill="#505050"/>
</svg>
